<svg width="209" height="48" viewBox="0 0 209 48" fill="none" xmlns="http://www.w3.org/2000/svg">
<path fill-rule="evenodd" clip-rule="evenodd" d="M55.3101 35.4004V14.1748H57.5744L69.5611 30.6507V14.1748H72.1451V35.4004H69.8318L57.8937 18.9088V35.4004H55.3101ZM104.958 30.3659V33.7898C103.893 34.4369 102.805 34.9291 101.699 35.2657C100.594 35.6023 99.4974 35.7734 98.4144 35.7734C97.3709 35.7734 96.3763 35.6129 95.4311 35.2969C94.4851 34.9758 93.593 34.5044 92.7495 33.8775C91.3998 32.8468 90.3477 31.5261 89.597 29.9257C88.8467 28.3198 88.4695 26.5796 88.4695 24.6944C88.4695 23.2699 88.7181 21.8872 89.211 20.5456C89.7039 19.2094 90.4097 18.0334 91.3198 17.0339C92.2919 15.9617 93.3801 15.1589 94.5831 14.6308C95.7906 14.097 97.1266 13.8328 98.5919 13.8328C99.6175 13.8328 100.63 13.9675 101.637 14.242C102.641 14.5166 103.697 14.9464 104.799 15.537V18.8365C103.644 18.1061 102.561 17.5672 101.544 17.2152C100.532 16.868 99.5464 16.6921 98.5919 16.6921C96.4654 16.6921 94.7117 17.4637 93.3219 19.0072C91.9324 20.5507 91.2399 22.4829 91.2399 24.8082C91.2399 27.1082 91.9236 29.0246 93.2909 30.5681C94.6583 32.1116 96.3719 32.8832 98.4365 32.8832C99.4974 32.8832 100.567 32.6761 101.651 32.2617C102.739 31.8473 103.84 31.2152 104.958 30.3659ZM107.831 14.1748H110.414V26.3568C110.414 27.7142 110.477 28.6774 110.601 29.2419C110.73 29.8064 110.938 30.2987 111.236 30.7131C111.773 31.4538 112.408 32.0026 113.145 32.3704C113.882 32.733 114.721 32.9143 115.658 32.9143C117.234 32.9143 118.503 32.4379 119.467 31.4898C120.43 30.5369 120.91 29.2834 120.91 27.7245V14.1748H123.494V27.8177C123.494 30.1794 122.77 32.0958 121.322 33.567C119.875 35.0378 117.988 35.7734 115.658 35.7734C114.277 35.7734 113.034 35.4885 111.924 34.9189C110.814 34.3437 109.882 33.5101 109.118 32.4067C108.647 31.7489 108.319 31.0185 108.124 30.2106C107.928 29.4027 107.831 28.1595 107.831 26.4813V14.1748ZM129.886 26.0463V32.6346H133.349C134.615 32.6346 135.538 32.3755 136.12 31.8524C136.705 31.3294 136.999 30.516 136.999 29.4027C136.999 28.2475 136.67 27.3982 136.017 26.8593C135.365 26.3157 134.335 26.0463 132.932 26.0463H129.886ZM127.303 35.4004V14.1748H132.63C134.446 14.1748 135.844 14.6564 136.825 15.6148C137.811 16.578 138.304 17.9402 138.304 19.7116C138.304 20.8047 138.082 21.7161 137.642 22.4414C137.199 23.1715 136.524 23.7309 135.614 24.1247C136.936 24.4925 137.962 25.1555 138.686 26.1134C139.409 27.077 139.769 28.2424 139.769 29.62C139.769 31.3811 139.218 32.7848 138.113 33.8309C137.007 34.8774 135.511 35.4004 133.62 35.4004H127.303ZM129.886 23.2805H131.645C132.972 23.2805 133.957 23.0008 134.597 22.4465C135.24 21.8923 135.56 21.0429 135.56 19.8981C135.56 18.8571 135.307 18.0958 134.801 17.6245C134.29 17.1477 133.483 16.9095 132.372 16.9095H129.886V23.2805ZM146.197 26.4192H151.867L148.995 18.7741L146.197 26.4192ZM140.199 35.4004L148.084 14.1748H149.98L157.967 35.4004H155.276L152.932 29.1538H145.181L142.868 35.4004H140.199ZM162.313 35.4004V16.9407H155.627V14.1748H171.583V16.9407H164.897V35.4004H162.313ZM175.494 24.8082C175.494 25.891 175.668 26.9269 176.014 27.9058C176.36 28.8848 176.862 29.7547 177.51 30.516C178.145 31.2725 178.886 31.8576 179.743 32.2669C180.595 32.6761 181.488 32.8832 182.416 32.8832C183.366 32.8832 184.263 32.6812 185.102 32.2822C185.937 31.8836 186.687 31.293 187.344 30.516C187.992 29.7547 188.494 28.8848 188.844 27.9058C189.195 26.9269 189.373 25.891 189.373 24.8082C189.373 23.7257 189.199 22.7053 188.853 21.737C188.507 20.7735 187.992 19.8878 187.317 19.0902C186.669 18.3079 185.923 17.7177 185.079 17.3085C184.24 16.8992 183.353 16.6921 182.416 16.6921C181.51 16.6921 180.64 16.8992 179.792 17.3136C178.948 17.728 178.185 18.3182 177.51 19.0902C176.862 19.8258 176.36 20.6906 176.014 21.6852C175.668 22.6745 175.494 23.7155 175.494 24.8082ZM172.724 24.6944C172.724 23.2805 172.973 21.9026 173.465 20.5716C173.958 19.2351 174.664 18.0543 175.574 17.0339C176.502 15.9929 177.55 15.2004 178.722 14.6513C179.89 14.1073 181.124 13.8328 182.416 13.8328C183.73 13.8328 184.982 14.1073 186.168 14.6616C187.348 15.2107 188.391 16.0032 189.293 17.0339C190.238 18.1061 190.949 19.3027 191.428 20.6131C191.903 21.9286 192.143 23.358 192.143 24.8963C192.143 26.3414 191.899 27.7296 191.406 29.0606C190.917 30.3919 190.221 31.5625 189.319 32.5722C188.374 33.6238 187.322 34.4215 186.154 34.9603C184.986 35.504 183.739 35.7734 182.416 35.7734C181.124 35.7734 179.885 35.4936 178.7 34.9394C177.519 34.38 176.476 33.5927 175.574 32.5722C174.638 31.5107 173.927 30.3089 173.448 28.978C172.964 27.6415 172.724 26.2119 172.724 24.6944ZM195.015 35.4004V14.1748H200.343C202.181 14.1748 203.601 14.6825 204.6 15.6923C205.599 16.7025 206.097 18.1373 206.097 19.9861C206.097 21.3847 205.822 22.5086 205.275 23.358C204.725 24.2073 203.864 24.8446 202.678 25.2692C202.984 25.4608 203.269 25.7148 203.54 26.036C203.81 26.3517 204.157 26.8854 204.583 27.6364L209 35.4004H205.852L202.732 29.8325C201.795 28.1543 201.04 27.0821 200.463 26.6211C199.89 26.1549 199.202 25.9219 198.408 25.9219H197.626V35.4004H195.015ZM197.626 23.3738H199.784C200.996 23.3738 201.901 23.0992 202.505 22.5552C203.105 22.0061 203.406 21.1725 203.406 20.0482C203.406 18.8934 203.122 18.0594 202.549 17.5364C201.977 17.0133 201.054 16.7542 199.784 16.7542H197.626V23.3738Z" fill="black"/>
<path fill-rule="evenodd" clip-rule="evenodd" d="M51.023 6.34448C52.573 6.34448 53.8298 7.59688 53.8298 9.14147C53.8298 10.6861 52.573 11.9384 51.023 11.9384C49.4729 11.9384 48.2161 10.6861 48.2161 9.14147C48.2161 7.59688 49.4729 6.34448 51.023 6.34448Z" fill="#FF0808"/>
<path fill-rule="evenodd" clip-rule="evenodd" d="M60.6823 0.664425C47.749 0.664425 37.2645 11.1123 37.2645 24.0002C37.2645 36.8877 47.749 47.3356 60.6823 47.3356C73.6158 47.3356 84.1006 36.8877 84.1006 24.0002C84.1006 11.1123 73.6158 0.664425 60.6823 0.664425ZM36.5977 24.0002C36.5977 10.7454 47.3807 0 60.6823 0C73.984 0 84.7673 10.7454 84.7673 24.0002C84.7673 37.2546 73.984 48 60.6823 48C47.3807 48 36.5977 37.2546 36.5977 24.0002Z" fill="black"/>
<path fill-rule="evenodd" clip-rule="evenodd" d="M49.7365 14.178H52.3092V35.3869H49.7365V14.178Z" fill="black"/>
<path fill-rule="evenodd" clip-rule="evenodd" d="M0 35.4179V14.2363H3.10743V35.4179H0ZM13.6985 35.4179V16.9966H5.73901V14.2363H24.7333V16.9966H16.7742V35.4179H13.6985Z" fill="black"/>
<path fill-rule="evenodd" clip-rule="evenodd" d="M28.569 22.78C30.1194 22.78 31.3759 24.032 31.3759 25.577C31.3759 27.122 30.1194 28.374 28.569 28.374C27.0186 28.374 25.7621 27.122 25.7621 25.577C25.7621 24.032 27.0186 22.78 28.569 22.78Z" fill="black"/>
</svg>
