<svg width="16" height="16" viewBox="0 0 16 16" fill="none" xmlns="http://www.w3.org/2000/svg">
<g opacity="0.4">
<path fill-rule="evenodd" clip-rule="evenodd" d="M11.5714 6.85714C11.5714 9.46077 9.46073 11.5714 6.85711 11.5714C4.25348 11.5714 2.14282 9.46077 2.14282 6.85714C2.14282 4.25351 4.25348 2.14285 6.85711 2.14285C9.46073 2.14285 11.5714 4.25351 11.5714 6.85714ZM10.5288 11.2359C9.53578 12.0694 8.25507 12.5714 6.85711 12.5714C3.70119 12.5714 1.14282 10.0131 1.14282 6.85714C1.14282 3.70123 3.70119 1.14285 6.85711 1.14285C10.013 1.14285 12.5714 3.70123 12.5714 6.85714C12.5714 8.25505 12.0694 9.53572 11.2359 10.5287L14.0679 13.3607C14.2631 13.556 14.2631 13.8726 14.0679 14.0678C13.8726 14.2631 13.556 14.2631 13.3608 14.0678L10.5288 11.2359Z" fill="black"/>
</g>
</svg>
