<svg width="14" height="16" viewBox="0 0 14 16" fill="none" xmlns="http://www.w3.org/2000/svg">
<path fill-rule="evenodd" clip-rule="evenodd" d="M2.31058 3.35578C3.64695 3.22082 4.98348 3.15332 6.3201 3.15332C8.56368 3.15332 10.8135 3.26751 13.0494 3.48909C13.3242 3.51632 13.5249 3.76117 13.4977 4.03596C13.4704 4.31076 13.2256 4.51145 12.9508 4.48422C10.7467 4.26579 8.52985 4.15332 6.3201 4.15332C5.01696 4.15332 3.71374 4.21913 2.41035 4.35079L2.40888 4.35093L1.04888 4.48427C0.774058 4.51121 0.529427 4.31026 0.502483 4.03544C0.475539 3.76061 0.676487 3.51598 0.951312 3.48904L2.31058 3.35578Z" fill="black"/>
<path fill-rule="evenodd" clip-rule="evenodd" d="M5.30649 2.52308L5.15986 3.39618C5.11413 3.66851 4.85628 3.8522 4.58396 3.80647C4.31163 3.76073 4.12794 3.50289 4.17367 3.23056L4.32034 2.35723C4.3229 2.34202 4.32554 2.32609 4.32821 2.30996C4.37411 2.0327 4.44146 1.62596 4.71259 1.3185C5.02863 0.960119 5.51083 0.833374 6.12677 0.833374H7.87343C8.49686 0.833374 8.97858 0.970307 9.29274 1.33234C9.56424 1.64521 9.6299 2.05341 9.67374 2.32598C9.67588 2.33924 9.67796 2.35218 9.68001 2.36478L9.82642 3.22994C9.8725 3.50222 9.68913 3.76029 9.41686 3.80636C9.14459 3.85244 8.88652 3.66907 8.84044 3.3968L8.69327 2.52717C8.63751 2.18515 8.60223 2.06239 8.53746 1.98774C8.50162 1.94644 8.37667 1.83337 7.87343 1.83337H6.12677C5.61603 1.83337 5.4949 1.9433 5.46261 1.97991C5.4012 2.04955 5.36654 2.16655 5.30649 2.52308Z" fill="black"/>
<path fill-rule="evenodd" clip-rule="evenodd" d="M11.599 5.59444C11.8745 5.61223 12.0835 5.85004 12.0657 6.12561L11.6322 12.8417L11.6313 12.8543C11.6138 13.1052 11.5944 13.381 11.5428 13.6376C11.4892 13.9038 11.3947 14.1846 11.2033 14.4338C10.8025 14.9556 10.1205 15.1667 9.14009 15.1667H4.8601C3.87972 15.1667 3.19768 14.9556 2.7969 14.4338C2.60549 14.1846 2.51103 13.9038 2.45744 13.6376C2.40575 13.381 2.38644 13.1052 2.36887 12.8543L2.36779 12.8389L1.93447 6.12561C1.91668 5.85004 2.12565 5.61223 2.40122 5.59444C2.67679 5.57665 2.9146 5.78563 2.93239 6.06119L3.36554 12.7718C3.36557 12.7722 3.3656 12.7727 3.36563 12.7732C3.38445 13.0417 3.40037 13.2546 3.43775 13.4402C3.47416 13.621 3.5247 13.7397 3.58996 13.8247C3.70251 13.9712 3.98047 14.1667 4.8601 14.1667H9.14009C10.0197 14.1667 10.2977 13.9712 10.4102 13.8247C10.4755 13.7397 10.526 13.621 10.5624 13.4402C10.5998 13.2546 10.6157 13.0417 10.6346 12.7732C10.6346 12.7727 10.6346 12.7722 10.6347 12.7718L11.0678 6.06119C11.0856 5.78563 11.3234 5.57665 11.599 5.59444Z" fill="black"/>
<path fill-rule="evenodd" clip-rule="evenodd" d="M5.38676 11C5.38676 10.7239 5.61062 10.5 5.88676 10.5H8.10676C8.38291 10.5 8.60676 10.7239 8.60676 11C8.60676 11.2761 8.38291 11.5 8.10676 11.5H5.88676C5.61062 11.5 5.38676 11.2761 5.38676 11Z" fill="black"/>
<path fill-rule="evenodd" clip-rule="evenodd" d="M4.83344 8.33337C4.83344 8.05723 5.05729 7.83337 5.33344 7.83337H8.66677C8.94291 7.83337 9.16677 8.05723 9.16677 8.33337C9.16677 8.60952 8.94291 8.83337 8.66677 8.83337H5.33344C5.05729 8.83337 4.83344 8.60952 4.83344 8.33337Z" fill="black"/>
</svg>
