<svg width="14" height="16" viewBox="0 0 14 16" fill="none" xmlns="http://www.w3.org/2000/svg">
<path fill-rule="evenodd" clip-rule="evenodd" d="M9.345 0.958172C10.1228 0.858708 10.9098 1.17678 11.7094 1.92915L11.7103 1.93002C12.5126 2.68875 12.8778 3.45841 12.823 4.24233C12.7701 4.99983 12.3309 5.64097 11.8302 6.17001M11.8302 6.17001L6.35959 11.9605C6.20536 12.1284 5.9977 12.2706 5.80084 12.3759C5.60144 12.4825 5.3708 12.5738 5.15427 12.6122L5.15094 12.6128L3.00504 12.9794C2.48467 13.0691 1.98567 12.939 1.6302 12.6019C1.27523 12.2653 1.11837 11.7744 1.17648 11.2514L1.17665 11.2499L1.42439 9.08054C1.45316 8.86474 1.5333 8.63122 1.62778 8.42864C1.72191 8.22679 1.85034 8.01276 2.00233 7.85096L2.00331 7.84993L7.47664 2.05659C7.97766 1.52734 8.59336 1.05429 9.345 0.958172M8.20319 2.7437C8.20311 2.74379 8.20328 2.74362 8.20319 2.7437L2.73118 8.53564C2.73107 8.53576 2.73129 8.53552 2.73118 8.53564C2.67653 8.59395 2.60146 8.70678 2.53407 8.85129C2.4679 8.99319 2.42815 9.12446 2.41623 9.20884L2.17036 11.3618C2.17034 11.3621 2.17031 11.3623 2.17029 11.3625C2.14195 11.6192 2.2217 11.7847 2.31831 11.8763C2.41451 11.9676 2.58218 12.0375 2.83514 11.9939L2.8359 11.9938L4.98064 11.6274C5.06416 11.6123 5.19284 11.567 5.32934 11.494C5.46773 11.42 5.57183 11.3402 5.62394 11.2831L5.62992 11.2765L11.1033 5.48326C11.5491 5.01236 11.7968 4.58326 11.8255 4.1726C11.8523 3.78829 11.6943 3.29146 11.0237 2.6571C10.3569 2.02977 9.85394 1.90123 9.47184 1.95009C9.06356 2.0023 8.64874 2.27312 8.20319 2.7437Z" fill="black"/>
<path fill-rule="evenodd" clip-rule="evenodd" d="M6.84978 2.87261C7.12263 2.8301 7.37828 3.01683 7.42079 3.28968C7.67221 4.90343 8.98189 6.1385 10.6102 6.3025C10.8849 6.33017 11.0852 6.57534 11.0576 6.85009C11.0299 7.12484 10.7847 7.32514 10.51 7.29746C8.43161 7.08813 6.75463 5.50987 6.43271 3.44362C6.3902 3.17077 6.57693 2.91512 6.84978 2.87261Z" fill="black"/>
<path fill-rule="evenodd" clip-rule="evenodd" d="M0.500092 14.6666C0.500092 14.3905 0.723949 14.1666 1.00009 14.1666H13.0001C13.2762 14.1666 13.5001 14.3905 13.5001 14.6666C13.5001 14.9428 13.2762 15.1666 13.0001 15.1666H1.00009C0.723949 15.1666 0.500092 14.9428 0.500092 14.6666Z" fill="black"/>
</svg>
