<svg width="24" height="24" viewBox="0 0 24 24" fill="none" xmlns="http://www.w3.org/2000/svg">
<path fill-rule="evenodd" clip-rule="evenodd" d="M5.33 2.76001C4.65773 2.76001 4.06 3.3103 4.06 4.13V6.45001C4.06 6.61289 4.11976 6.88228 4.25804 7.19049C4.39351 7.49245 4.57376 7.76307 4.75033 7.93964L4.76362 7.95327L8.60362 11.9933C8.61622 12.0066 8.62834 12.0203 8.63995 12.0345C8.90269 12.3549 9.1413 12.7775 9.31526 13.2131C9.48798 13.6456 9.62 14.1484 9.62 14.63V19.98C9.62 20.9693 10.755 21.5824 11.6001 21.0655L13.0033 20.1598C13.3513 19.9352 13.8155 20.0352 14.0401 20.3833C14.2648 20.7313 14.1647 21.1955 13.8167 21.4201L12.4067 22.3302L12.3944 22.3379C10.6201 23.435 8.12 22.2285 8.12 19.98V14.63C8.12 14.4016 8.05201 14.0944 7.92223 13.7694C7.79823 13.4589 7.63899 13.1851 7.49569 13.0049L3.68247 8.99307C3.35228 8.66061 3.0801 8.22943 2.88946 7.80449C2.70023 7.38272 2.56 6.89713 2.56 6.45001V4.13C2.56 2.52971 3.78226 1.26001 5.33 1.26001H18.67C20.1942 1.26001 21.44 2.50582 21.44 4.03003V6.25C21.44 6.79751 21.2721 7.36157 21.0548 7.83769C20.8365 8.31586 20.5372 8.77344 20.2103 9.10034C19.9174 9.39323 19.4426 9.39323 19.1497 9.10034C18.8568 8.80744 18.8568 8.33257 19.1497 8.03968C19.3228 7.86658 19.5285 7.56916 19.6902 7.21482C19.8529 6.85843 19.94 6.51249 19.94 6.25V4.03003C19.94 3.33423 19.3658 2.76001 18.67 2.76001H5.33Z" fill="black"/>
<path fill-rule="evenodd" clip-rule="evenodd" d="M16.88 10.75C14.6742 10.75 12.88 12.5442 12.88 14.75C12.88 15.5003 13.091 16.2135 13.4575 16.8049L13.4636 16.8148L13.4635 16.8148C14.1539 17.9683 15.4249 18.75 16.88 18.75C18.3376 18.75 19.6064 17.9762 20.2952 16.8169L20.3 16.8089L20.3 16.8089C20.6703 16.2031 20.88 15.4978 20.88 14.75C20.88 12.5442 19.0858 10.75 16.88 10.75ZM11.38 14.75C11.38 11.7158 13.8458 9.25 16.88 9.25C19.9142 9.25 22.38 11.7158 22.38 14.75C22.38 15.7805 22.0907 16.7538 21.5824 17.5871C20.6307 19.1856 18.8807 20.25 16.88 20.25C14.8772 20.25 13.1297 19.174 12.1794 17.5901C11.6679 16.7626 11.38 15.7777 11.38 14.75Z" fill="black"/>
<path fill-rule="evenodd" clip-rule="evenodd" d="M15.1097 12.9496C15.4026 12.6568 15.8774 12.6568 16.1703 12.9497L18.6803 15.4597C18.9732 15.7526 18.9732 16.2274 18.6803 16.5203C18.3874 16.8132 17.9126 16.8132 17.6197 16.5203L15.1097 14.0103C14.8168 13.7174 14.8168 13.2425 15.1097 12.9496Z" fill="black"/>
<path fill-rule="evenodd" clip-rule="evenodd" d="M18.6603 12.9797C18.9532 13.2726 18.9532 13.7474 18.6603 14.0403L16.1503 16.5503C15.8574 16.8432 15.3826 16.8432 15.0897 16.5504C14.7968 16.2575 14.7968 15.7826 15.0897 15.4897L17.5997 12.9797C17.8926 12.6868 18.3674 12.6868 18.6603 12.9797Z" fill="black"/>
<path fill-rule="evenodd" clip-rule="evenodd" d="M5.33 2.75C4.65773 2.75 4.06 3.30029 4.06 4.12V6.45001C4.06 6.60419 4.12005 6.87213 4.2613 7.18567C4.3991 7.49153 4.58111 7.76699 4.75555 7.94492L4.76368 7.95321L4.76362 7.95327L8.60362 11.9933C8.61831 12.0088 8.63233 12.0248 8.64565 12.0415C8.89874 12.3578 9.13572 12.7765 9.31072 13.2111C9.48403 13.6416 9.62 14.1456 9.62 14.63V19.98C9.62 20.9693 10.755 21.5824 11.6001 21.0655L13.0033 20.1598C13.012 20.1542 13.0208 20.1488 13.0297 20.1435C13.1215 20.0895 13.2651 19.9431 13.3902 19.7014C13.4988 19.4916 13.5562 19.2817 13.5678 19.1267C13.0027 18.7096 12.5335 18.1826 12.178 17.5877C11.6695 16.7543 11.38 15.7808 11.38 14.75C11.38 11.7158 13.8458 9.25 16.88 9.25C17.1576 9.25 17.4328 9.27061 17.7019 9.3127L19.1616 8.02713C19.3344 7.84522 19.5332 7.55101 19.6899 7.20684C19.8529 6.84854 19.94 6.50245 19.94 6.23999V4.02002C19.94 3.32422 19.3658 2.75 18.67 2.75H5.33ZM2.56 4.12C2.56 2.5197 3.78226 1.25 5.33 1.25H18.67C20.1942 1.25 21.44 2.49582 21.44 4.02002V6.23999C21.44 6.78753 21.2721 7.35145 21.0551 7.82816C20.837 8.30752 20.5389 8.76523 20.2156 9.09506C20.2027 9.10814 20.1894 9.12075 20.1757 9.13285L18.4157 10.6828C18.2321 10.8446 17.9811 10.9065 17.7433 10.8489C17.4753 10.7839 17.1849 10.75 16.88 10.75C14.6742 10.75 12.88 12.5442 12.88 14.75C12.88 15.4978 13.0897 16.2031 13.46 16.8089L13.4641 16.8156L13.464 16.8157C13.7753 17.3372 14.2009 17.7773 14.7119 18.0905C14.9344 18.2269 15.07 18.4691 15.07 18.73V19.07C15.07 19.522 14.9273 19.9952 14.7223 20.3911C14.5224 20.7771 14.216 21.1805 13.8054 21.4274L12.4067 22.3302L12.3944 22.3379C10.6201 23.435 8.12 22.2285 8.12 19.98V14.63C8.12 14.4044 8.05097 14.0985 7.91928 13.7714C7.79457 13.4617 7.63489 13.1856 7.49241 13.0015L3.68009 8.99058C3.35645 8.65908 3.08503 8.22653 2.89369 7.80181C2.70495 7.38287 2.56 6.89583 2.56 6.45001V4.12Z" fill="black"/>
</svg>
